<svg width="270" height="578" viewBox="0 0 270 578" fill="none" xmlns="http://www.w3.org/2000/svg">
<path d="M126.3 0.662419L120 1.76242V5.96242C120 11.9624 122.2 18.4624 125.9 23.9624C132.3 33.1624 134 38.2624 134 47.7624C134 54.9624 134.5 57.5624 136.5 62.2624C140.5 71.2624 140.6 71.3624 150.2 70.2624C154.8 69.8624 158.9 69.0624 159.4 68.5624C159.9 68.0624 160.9 62.6624 161.7 56.3624C162.5 50.1624 163.4 44.0624 163.6 42.7624C163.9 41.4624 167.3 37.0624 171.2 32.7624C178.8 24.5624 181.6 19.4624 182.6 12.2624C183.4 6.86242 183.2 6.66242 169.8 2.96242C162.4 0.962419 157.7 0.362419 146.5 0.0624188C138.8 -0.137581 129.7 0.162419 126.3 0.662419Z" fill="#BD3939"/>
<path d="M105.6 6.86269C100.4 13.2627 94.9 25.5627 94.7 31.2627L94.5 36.0627L102 36.3627C112 36.7627 113 35.9627 114 26.4627C114.5 22.3627 114.6 16.1627 114.3 12.5627C113.3 1.36269 111.3 -0.0373113 105.6 6.86269Z" fill="#BD3939"/>
<path d="M183.9 18.7628C183.9 18.8628 183.7 23.5628 183.6 29.0628C183.3 41.7628 182.3 45.0628 174.4 61.7628C170.8 69.2628 167.6 77.1628 167.3 79.3628L166.8 83.4628L174 87.0628C180.2 90.1628 181.7 90.5628 183.8 89.6628C188.6 87.3628 193.1 83.1628 196.5 77.4628C199.3 72.9628 202.2 70.0628 210.3 64.2628C226.9 52.0628 229.7 48.2628 225.7 42.7628C221.2 36.7628 208.8 26.5628 201.6 23.0628C195.7 20.2628 184.2 17.4628 183.9 18.7628Z" fill="#BD3939"/>
<path d="M92 43.2628C82.2 46.6628 71.9 56.4628 65.6 68.4628C60 79.1628 52.9 101.563 52.3 110.663C51.3 124.963 57.3 132.763 73 137.663C105.2 147.563 119.1 129.263 119.4 76.5628C119.4 65.0628 119 57.5628 118.2 54.7628C114.9 43.6628 104.3 38.9628 92 43.2628Z" fill="#BD3939"/>
<path d="M230.4 63.5627C224.5 66.5627 218.2 72.1627 216 76.6627C213.6 81.3627 211.1 83.0627 203.9 85.1627C198.1 86.8627 186 94.2627 186 96.2627C186 99.0627 195.3 123.263 197 125.063C200.6 128.563 217.8 126.663 220 122.563C221.8 119.163 225 117.763 240.4 113.663C248.6 111.363 255.5 109.463 255.7 109.163C256.4 108.463 252.4 92.6627 249.5 84.5627C248 80.4627 245.2 73.5627 243.2 69.2627C239.2 60.4627 237.9 59.8627 230.4 63.5627Z" fill="#BD3939"/>
<path d="M158 85.8625C156.6 86.5625 155 88.6625 154.4 90.4625C153.1 94.3625 150.4 96.5625 143.8 99.0625C138.4 101.062 137.8 102.662 141.7 105.262C147.2 108.962 151.7 114.362 153.1 118.962C153.8 121.462 154.8 123.562 155.3 123.562C155.7 123.562 158.5 121.262 161.3 118.462C164.2 115.662 168.9 112.062 171.8 110.362C174.6 108.762 177 106.962 177 106.562C177 105.362 170.4 99.8625 168 99.0625C165.6 98.2625 164 94.8625 164 90.5625C164 84.6625 162.6 83.5625 158 85.8625Z" fill="#BD3939"/>
<path d="M15.6 95.2624C7.5 105.462 0 123.362 0 132.462C0 134.762 0.6 135.862 2.4 136.662C5.3 138.062 9.6 136.162 15.9 130.762C20.1 127.062 20.2 126.862 21 118.762C21.5 114.162 22.4 108.862 23 106.962C24.5 102.562 25.9 92.4624 25.3 90.7624C25 90.1624 23.7 89.5624 22.5 89.5624C20.9 89.5624 18.8 91.2624 15.6 95.2624Z" fill="#BD3939"/>
<path d="M245.3 123.063C241.1 124.863 234.2 131.863 233.4 135.163C232.7 137.763 232.7 137.863 225.8 137.263C220 136.763 217.4 137.063 210.9 139.163C201.6 142.063 202.1 140.063 204.5 163.263C206.8 184.663 205.9 182.963 213.4 182.363C220.4 181.763 226.8 179.163 232.2 174.463L235.9 171.363L242.6 175.063L249.4 178.863L257.6 176.163L265.9 173.463L265.4 165.263C264.3 149.563 262 131.563 260.6 128.163C258 121.963 252.2 119.963 245.3 123.063Z" fill="#BD3939"/>
<path d="M170.7 124.562C169.3 125.662 167.6 128.162 167 130.062C165.8 133.662 162.8 135.162 155.5 135.762C152.9 136.062 152.5 136.562 152.2 139.262C151.9 142.362 151.9 142.462 157.9 143.662C163.8 144.762 164 144.962 164.6 148.462C165.6 153.862 167.8 157.762 169.8 157.362C170.7 157.162 173.2 154.462 175.2 151.362C179 145.662 179 145.662 185 144.962C190.3 144.362 191 144.062 191 142.162C191 139.262 189.2 137.562 186.1 137.562C180.9 137.562 178.6 135.362 177 129.162C176.2 125.862 175 123.062 174.4 122.862C173.8 122.662 172.2 123.462 170.7 124.562Z" fill="#BD3939"/>
<path d="M20.5998 141.563C12.2998 144.063 7.19979 154.463 8.39979 166.663C8.99979 173.163 13.5998 190.163 17.9998 201.963C22.2998 213.163 28.0998 217.063 42.1998 218.163C58.1998 219.463 69.7998 215.363 75.6998 206.463C78.2998 202.563 78.4998 201.463 78.3998 193.163C78.2998 185.863 77.7998 182.563 75.5998 176.563C71.9998 166.963 65.8998 155.063 62.0998 150.463C57.8998 145.363 53.7998 143.763 40.8998 142.063C28.3998 140.363 24.8998 140.363 20.5998 141.563Z" fill="#BD3939"/>
<path d="M162.6 163.762C160.6 165.762 159 168.062 159 168.862C159 171.262 155 173.562 150.9 173.562C145.7 173.562 144 174.462 144 177.062C144 180.162 145.6 181.262 151.3 182.062C155.3 182.662 156.1 183.162 156.6 185.462C159 196.362 160.6 197.862 165 192.962C166.7 190.962 168.6 188.262 169.2 186.962C170.2 184.762 171.1 184.362 179.3 182.962C182.5 182.462 183 181.962 183 179.562C183 176.662 181.2 175.562 176.3 175.562C173 175.562 170.3 172.362 169.5 167.762C169.2 165.562 168.3 162.962 167.5 161.962C166.3 160.262 166 160.362 162.6 163.762Z" fill="#BD3939"/>
<path d="M253 191.162C252.2 191.462 247.3 193.362 242.2 195.362C233 198.962 232.9 198.962 229.9 197.162C226.3 195.062 220.6 195.462 211.9 198.462L206.5 200.262L205.7 206.162C204.4 215.762 205.3 229.462 207.5 234.062C209.3 237.662 209.9 238.062 213.8 238.362C216.2 238.562 220.5 237.862 223.3 236.962C230.6 234.562 237.5 234.562 239.3 236.962C240.5 238.662 241.6 238.762 248 238.262C258.3 237.362 263.7 234.462 266.9 228.062C269.2 223.462 269.4 222.062 269.2 210.062C269.1 202.862 268.6 195.662 268.2 194.062C267.4 191.162 267.2 191.062 260.9 190.862C257.4 190.762 253.8 190.962 253 191.162Z" fill="#BD3939"/>
<path d="M105.7 192.563C101 193.963 96.3999 198.163 88.2999 208.363C77.0999 222.463 69.2999 229.663 53.0999 240.263C45.1999 245.463 36.7999 251.763 34.2999 254.163C23.5999 264.963 20.8999 282.363 28.5999 291.563C36.2999 300.563 45.0999 302.363 87.9999 303.563C121.3 304.463 125.2 304.963 145.2 310.063C154.1 312.463 163.1 312.163 167.9 309.463C181.2 301.963 182.8 281.663 171.5 263.963C169.5 260.863 162.1 252.363 155.1 245.163C141.2 230.863 138.1 226.663 134.4 216.863C128.8 202.163 123.1 194.763 115.3 192.663C110.9 191.463 109.6 191.363 105.7 192.563Z" fill="#BD3939"/>
<path d="M173.3 206.062C172.1 206.862 170.6 209.162 170 211.062C168.6 215.162 167.2 216.062 160.8 217.062C157.8 217.562 156 218.262 156 219.162C156 219.862 158.3 222.362 161.1 224.762C164.5 227.562 167 230.862 168.6 234.262C169.8 237.162 171.3 239.562 171.9 239.562C174.3 239.562 176.2 238.062 178 234.662C180.5 229.662 182.1 228.462 188.3 227.062C193.1 225.962 193.5 225.662 193.5 223.062C193.5 220.362 193.1 220.062 189 219.262C183.4 218.262 181.4 215.962 180.5 209.562C179.9 205.262 179.5 204.562 177.6 204.562C176.4 204.562 174.5 205.262 173.3 206.062Z" fill="#BD3939"/>
<path d="M197.9 259.262C194.6 266.862 192 278.362 192 285.262V291.562H198.3C208.8 291.662 217.5 293.362 227.9 297.562C239.4 302.262 243.1 302.562 246.5 299.162C251.7 293.962 258.1 276.562 259.6 263.762L260.2 257.862L257.4 257.462C255.8 257.162 248 257.362 240 257.862C227 258.562 224.7 258.462 217.3 256.662C212.8 255.462 207 254.562 204.5 254.562C200 254.562 199.9 254.662 197.9 259.262Z" fill="#BD3939"/>
<path d="M57 366.062V402.562H129.5H202V366.062V329.562H129.5H57V366.062ZM200 366.062V400.562H129.5H59V366.062V331.562H129.5H200V366.062Z" fill="#BD3939"/>
<path d="M130.2 419.263C129.5 419.563 128.1 421.463 127 423.563C124.6 428.263 123.7 428.863 118 429.563C113.8 430.063 113.5 430.263 113.5 432.963C113.5 435.763 113.9 436.063 118.4 436.963C123.2 438.063 123.4 438.163 124.6 442.663C126.6 450.863 128.1 451.463 132 445.963C136.3 439.763 137.5 438.863 142.9 438.163C145.9 437.763 148 436.963 148 436.263C148 433.763 146 432.063 141.9 431.063C137.3 429.963 136.5 429.063 135 422.763C134 418.763 133.1 418.063 130.2 419.263Z" fill="#BD3939"/>
<path d="M156.7 429.762C153.9 431.962 150 443.962 150 450.662C150 462.062 154.8 466.362 169 467.462L177.9 468.262L183.5 473.362C189.2 478.662 193.7 480.562 200.1 480.562C203.1 480.562 203.9 480.062 204.9 477.762C207 472.562 208 467.962 209 459.162C210.1 448.362 209 441.062 205.6 437.662C203.4 435.462 202.5 435.362 194.8 435.562C178.1 436.162 177.9 436.162 171.6 432.262C165.3 428.362 159.8 427.462 156.7 429.762Z" fill="#BD3939"/>
<path d="M120.4 454.763C119.3 456.063 117.8 458.363 117.2 459.863C115.9 462.963 115.5 463.163 108.8 464.063C104.4 464.663 104 464.863 104 467.463C104 469.963 104.5 470.463 107.8 470.963C114.4 472.163 114.8 472.463 115.5 476.563C115.9 478.763 116.9 481.463 117.9 482.663L119.6 484.763L122.5 481.263C124.2 479.263 126.2 476.763 127 475.563C128 474.163 130.1 473.263 133.5 472.763C138 472.163 138.5 471.763 138.5 469.563C138.5 467.063 137.4 466.463 130.8 465.063C128.8 464.663 127.9 463.763 127.4 461.763C125.3 452.163 123.9 450.763 120.4 454.763Z" fill="#BD3939"/>
<path d="M146.8 475.163C145.9 476.663 142.2 489.763 140 498.563C137.5 509.263 135.5 507.463 159.4 516.063C164.6 517.863 169.3 520.563 173.4 523.763C180.1 529.263 184.8 531.562 189 531.562C191.6 531.562 191.9 531.063 193.4 525.263C194.2 521.863 195.8 515.863 196.9 512.063C198.2 507.463 198.9 501.863 198.9 495.863L199 486.763L191.3 486.063C173.9 484.663 169.8 483.663 163.2 479.363C157 475.363 148 473.063 146.8 475.163Z" fill="#BD3939"/>
<path d="M110.4 486.762C109.3 488.062 107.9 490.262 107.2 491.762C106.1 494.462 105.2 494.862 97.8 496.062C94.4 496.562 94 496.962 94 499.562C94 502.162 94.4 502.462 98.3 503.062C104.1 503.962 104.4 504.262 105.9 509.762C108.2 517.962 109.9 517.662 117.1 507.462C118.2 505.862 120 505.062 123.6 504.662C127.7 504.162 128.6 503.662 128.8 501.862C129.1 499.562 128.3 498.962 121.6 496.962C118.4 495.962 117.7 494.962 116.1 488.762C114.8 484.062 113.3 483.462 110.4 486.762Z" fill="#BD3939"/>
<path d="M131 517.162C131 517.962 133.4 521.262 136.4 524.362C139.3 527.462 143.4 533.262 145.3 537.062C147.2 540.962 150.7 546.462 152.9 549.362C157.4 554.962 165.5 561.462 168.1 561.562C169 561.562 172.2 557.862 175.3 553.362L181 545.162L177.3 541.262C173.7 537.562 170.2 535.662 154.9 528.762C151.3 527.162 145.8 523.562 142.6 520.662C138.5 516.962 136.2 515.562 134 515.562C131.9 515.562 131 516.062 131 517.162Z" fill="#BD3939"/>
<path d="M119 525.263C119.1 526.863 119.7 529.663 120.5 531.563C124.6 542.263 125.1 544.563 126 559.063C126.6 567.563 127.3 575.163 127.6 576.063C128.2 577.563 129.4 577.663 136.4 577.063C140.9 576.663 146.1 575.663 148 574.763C150.9 573.363 151.5 572.463 151.8 569.363C152.3 563.363 148.4 556.963 135.1 542.063C132.2 538.763 128.7 533.763 127.5 530.963C125.5 526.363 122 522.563 119.8 522.563C119.3 522.563 119 523.763 119 525.263Z" fill="#BD3939"/>
<path d="M80.192 358.234L74.628 340.216H74.524V357.22H77.384V358H70.52V357.22H73.38V339.176H70.52V338.396H78.736L82.402 350.226H82.506L86.172 338.396H93.712V339.176H91.008V357.22H93.712V358H84.118V357.22H86.9V340.216H86.796L81.258 358.234H80.192ZM106.914 357.61L102.156 344.584H102.052L101.896 343.622L103.664 338.162H104.34L111.412 357.61H106.914ZM93.7057 358V357.22H100.05V358H93.7057ZM98.3597 352.696V351.942H107.304V352.696H98.3597ZM104.054 358V357.22H113.076V358H104.054ZM95.9937 357.61L103.664 338.162H104.34L102.988 342.296L96.8517 357.61H95.9937ZM119.624 347.808V347.028H121.782C122.614 347.028 123.29 346.924 123.81 346.716C124.33 346.508 124.702 346.118 124.928 345.546C125.17 344.974 125.292 344.142 125.292 343.05C125.292 341.941 125.179 341.117 124.954 340.58C124.728 340.025 124.39 339.653 123.94 339.462C123.506 339.271 122.96 339.176 122.302 339.176H113.202V338.396H123.602C124.85 338.396 125.968 338.578 126.956 338.942C127.961 339.289 128.758 339.791 129.348 340.45C129.937 341.109 130.232 341.915 130.232 342.868C130.232 343.925 129.894 344.827 129.218 345.572C128.542 346.3 127.571 346.855 126.306 347.236C125.058 347.617 123.55 347.808 121.782 347.808H119.624ZM113.202 358V357.22H122.848V358H113.202ZM115.672 357.61V338.396H119.78V357.61H115.672ZM129.27 358C128.403 358 127.623 357.835 126.93 357.506C126.236 357.177 125.673 356.717 125.24 356.128C124.824 355.521 124.598 354.819 124.564 354.022L124.434 351.188C124.382 350.027 124.044 349.177 123.42 348.64C122.796 348.085 121.998 347.808 121.028 347.808L123.004 347.652H124.746V347.756C125.526 347.929 126.28 348.267 127.008 348.77C127.753 349.273 128.36 349.879 128.828 350.59C129.296 351.301 129.53 352.072 129.53 352.904V354.074C129.53 355.27 129.66 356.085 129.92 356.518C130.18 356.951 130.648 357.168 131.324 357.168H132.312V358H129.27ZM142.233 358.338C140.864 358.338 139.607 358.069 138.463 357.532C137.319 356.995 136.323 356.267 135.473 355.348C134.641 354.412 133.991 353.346 133.523 352.15C133.055 350.937 132.821 349.663 132.821 348.328C132.821 346.993 133.047 345.719 133.497 344.506C133.965 343.293 134.624 342.209 135.473 341.256C136.323 340.303 137.328 339.549 138.489 338.994C139.651 338.439 140.933 338.162 142.337 338.162C143.239 338.162 144.01 338.292 144.651 338.552C145.31 338.795 145.986 339.176 146.679 339.696L147.823 338.396H148.473V344.402H147.693C147.503 343.397 147.182 342.495 146.731 341.698C146.298 340.883 145.709 340.242 144.963 339.774C144.235 339.306 143.325 339.072 142.233 339.072C141.592 339.072 140.994 339.193 140.439 339.436C139.902 339.679 139.434 340.138 139.035 340.814C138.637 341.473 138.325 342.435 138.099 343.7C137.874 344.948 137.761 346.586 137.761 348.614C137.761 350.399 137.848 351.873 138.021 353.034C138.212 354.178 138.498 355.071 138.879 355.712C139.261 356.353 139.729 356.804 140.283 357.064C140.855 357.307 141.514 357.428 142.259 357.428C143.438 357.428 144.417 357.194 145.197 356.726C145.995 356.258 146.619 355.643 147.069 354.88C147.537 354.1 147.867 353.259 148.057 352.358H148.837V358H148.057L146.913 356.804C146.168 357.341 145.405 357.731 144.625 357.974C143.863 358.217 143.065 358.338 142.233 358.338ZM150.729 358V357.22H153.199V339.176H150.729V338.396H159.855V339.176H157.307V347.496H164.665V339.176H162.117V338.396H171.295V339.176H168.773V357.22H171.295V358H162.117V357.22H164.665V348.276H157.307V357.22H159.855V358H150.729ZM172.209 358V357.22H183.207C184.178 357.22 185.001 356.96 185.677 356.44C186.353 355.92 186.873 355.235 187.237 354.386C187.619 353.537 187.818 352.618 187.835 351.63H188.875V358H172.209ZM174.679 357.61V338.396H178.787V357.61H174.679ZM183.441 352.384C183.424 351.552 183.259 350.867 182.947 350.33C182.635 349.793 182.133 349.394 181.439 349.134C180.746 348.874 179.827 348.744 178.683 348.744V347.964C179.827 347.964 180.746 347.843 181.439 347.6C182.133 347.357 182.635 346.985 182.947 346.482C183.259 345.979 183.424 345.347 183.441 344.584H184.481V352.384H183.441ZM187.445 343.596C187.428 342.799 187.246 342.071 186.899 341.412C186.57 340.736 186.093 340.199 185.469 339.8C184.845 339.384 184.091 339.176 183.207 339.176H172.209V338.396H188.485V343.596H187.445Z" fill="#BD3939"/>
<path d="M70.52 393V392.22H79.906C80.842 392.22 81.6307 392.09 82.272 391.83C82.9307 391.57 83.4593 391.111 83.858 390.452C84.274 389.793 84.5687 388.875 84.742 387.696C84.9327 386.5 85.028 384.983 85.028 383.146C85.028 381.343 84.9413 379.861 84.768 378.7C84.5947 377.521 84.3087 376.603 83.91 375.944C83.5287 375.285 83.026 374.826 82.402 374.566C81.778 374.306 81.024 374.176 80.14 374.176H70.52V373.396H80.946C82.2113 373.396 83.39 373.656 84.482 374.176C85.574 374.696 86.5273 375.415 87.342 376.334C88.174 377.235 88.8153 378.275 89.266 379.454C89.734 380.615 89.968 381.837 89.968 383.12C89.968 384.42 89.7253 385.668 89.24 386.864C88.772 388.043 88.1133 389.091 87.264 390.01C86.432 390.929 85.4527 391.657 84.326 392.194C83.1993 392.731 81.986 393 80.686 393H70.52ZM72.99 392.61V373.396H77.098V392.61H72.99ZM91.2641 393V392.22H102.262C103.233 392.22 104.056 391.96 104.732 391.44C105.408 390.92 105.928 390.235 106.292 389.386C106.673 388.537 106.873 387.618 106.89 386.63H107.93V393H91.2641ZM93.7341 392.61V373.396H97.8421V392.61H93.7341ZM102.496 387.384C102.479 386.552 102.314 385.867 102.002 385.33C101.69 384.793 101.187 384.394 100.494 384.134C99.8008 383.874 98.8821 383.744 97.7381 383.744V382.964C98.8821 382.964 99.8008 382.843 100.494 382.6C101.187 382.357 101.69 381.985 102.002 381.482C102.314 380.979 102.479 380.347 102.496 379.584H103.536V387.384H102.496ZM106.5 378.596C106.483 377.799 106.301 377.071 105.954 376.412C105.625 375.736 105.148 375.199 104.524 374.8C103.9 374.384 103.146 374.176 102.262 374.176H91.2641V373.396H107.54V378.596H106.5ZM117.194 393.234L110.122 373.786H114.62L119.326 386.708H119.43L119.586 387.67L117.87 393.234H117.194ZM117.194 393.234L118.546 389.1L124.162 373.786H125.02L117.87 393.234H117.194ZM108.198 374.176V373.396H116.83V374.176H108.198ZM120.964 374.176V373.396H126.71V374.176H120.964ZM129.179 392.61V373.396H133.287V392.61H129.179ZM126.709 393V392.22H135.835V393H126.709ZM126.709 374.176V373.396H135.835V374.176H126.709ZM136.739 393V392.22H147.737C148.707 392.22 149.531 391.96 150.207 391.44C150.883 390.92 151.403 390.235 151.767 389.386C152.148 388.537 152.347 387.618 152.365 386.63H153.405V393H136.739ZM139.209 392.61V373.396H143.317V392.61H139.209ZM147.971 387.384C147.953 386.552 147.789 385.867 147.477 385.33C147.165 384.793 146.662 384.394 145.969 384.134C145.275 383.874 144.357 383.744 143.213 383.744V382.964C144.357 382.964 145.275 382.843 145.969 382.6C146.662 382.357 147.165 381.985 147.477 381.482C147.789 380.979 147.953 380.347 147.971 379.584H149.011V387.384H147.971ZM151.975 378.596C151.957 377.799 151.775 377.071 151.429 376.412C151.099 375.736 150.623 375.199 149.999 374.8C149.375 374.384 148.621 374.176 147.737 374.176H136.739V373.396H153.015V378.596H151.975ZM170.754 393.338L158.95 376.334H158.846V392.22H161.706V393H154.842V392.22H157.702V374.176H154.842V373.396H162.434L170.65 384.966H170.754V374.176H168.154V373.396H174.498V374.176H171.898V393.338H170.754ZM182.637 393.338C181.579 393.338 180.669 393.191 179.907 392.896C179.144 392.601 178.442 392.22 177.801 391.752L176.579 393H175.799V387.54H176.605C176.813 388.389 177.151 389.187 177.619 389.932C178.104 390.677 178.754 391.284 179.569 391.752C180.383 392.203 181.38 392.428 182.559 392.428C183.529 392.428 184.335 392.272 184.977 391.96C185.635 391.648 186.129 391.223 186.459 390.686C186.805 390.131 186.979 389.525 186.979 388.866C186.979 388.19 186.823 387.644 186.511 387.228C186.199 386.812 185.791 386.491 185.289 386.266C184.803 386.023 184.275 385.833 183.703 385.694C183.148 385.555 182.619 385.425 182.117 385.304C180.903 384.992 179.837 384.585 178.919 384.082C178 383.562 177.281 382.895 176.761 382.08C176.258 381.265 176.007 380.251 176.007 379.038C176.007 377.703 176.293 376.603 176.865 375.736C177.437 374.869 178.191 374.228 179.127 373.812C180.063 373.379 181.059 373.162 182.117 373.162C182.897 373.162 183.59 373.275 184.197 373.5C184.821 373.725 185.479 374.055 186.173 374.488L187.187 373.396H187.993V378.7H187.213C186.71 377.053 186.034 375.875 185.185 375.164C184.335 374.436 183.295 374.072 182.065 374.072C181.319 374.072 180.635 374.193 180.011 374.436C179.404 374.661 178.919 374.991 178.555 375.424C178.191 375.857 178.009 376.369 178.009 376.958C178.009 377.513 178.165 377.972 178.477 378.336C178.789 378.683 179.196 378.96 179.699 379.168C180.201 379.376 180.739 379.549 181.311 379.688C181.883 379.827 182.429 379.957 182.949 380.078C184.266 380.39 185.375 380.823 186.277 381.378C187.178 381.915 187.863 382.626 188.331 383.51C188.799 384.394 189.033 385.503 189.033 386.838C189.033 388.883 188.478 390.478 187.369 391.622C186.277 392.766 184.699 393.338 182.637 393.338Z" fill="#BD3939"/>
<path d="M121.24 370V369.64H126.316C126.764 369.64 127.144 369.52 127.456 369.28C127.768 369.04 128.008 368.724 128.176 368.332C128.352 367.94 128.444 367.516 128.452 367.06H128.932V370H121.24ZM122.38 369.82V360.952H124.276V369.82H122.38ZM126.424 367.408C126.416 367.024 126.34 366.708 126.196 366.46C126.052 366.212 125.82 366.028 125.5 365.908C125.18 365.788 124.756 365.728 124.228 365.728V365.368C124.756 365.368 125.18 365.312 125.5 365.2C125.82 365.088 126.052 364.916 126.196 364.684C126.34 364.452 126.416 364.16 126.424 363.808H126.904V367.408H126.424ZM128.272 363.352C128.264 362.984 128.18 362.648 128.02 362.344C127.868 362.032 127.648 361.784 127.36 361.6C127.072 361.408 126.724 361.312 126.316 361.312H121.24V360.952H128.752V363.352H128.272ZM131.251 370V369.64H132.751V361.312H132.151C131.711 361.312 131.331 361.432 131.011 361.672C130.699 361.912 130.455 362.228 130.279 362.62C130.111 363.012 130.023 363.436 130.015 363.892H129.535V360.952H137.863V363.892H137.383C137.375 363.436 137.283 363.012 137.107 362.62C136.939 362.228 136.699 361.912 136.387 361.672C136.075 361.432 135.695 361.312 135.247 361.312H134.647V369.64H136.063V370H131.251Z" fill="#BD3939"/>
</svg>
